<?xml version="1.0" encoding="utf-8"?><svg xmlns="http://www.w3.org/2000/svg" xmlns:xlink="http://www.w3.org/1999/xlink"><symbol viewBox="0 0 284.929 284.929" id="angle-arrow" xmlns="http://www.w3.org/2000/svg"><path d="M282.082 76.511l-14.274-14.273c-1.902-1.906-4.093-2.856-6.57-2.856-2.471 0-4.661.95-6.563 2.856L142.466 174.441 30.262 62.241c-1.903-1.906-4.093-2.856-6.567-2.856-2.475 0-4.665.95-6.567 2.856L2.856 76.515C.95 78.417 0 80.607 0 83.082c0 2.473.953 4.663 2.856 6.565l133.043 133.046c1.902 1.903 4.093 2.854 6.567 2.854s4.661-.951 6.562-2.854L282.082 89.647c1.902-1.903 2.847-4.093 2.847-6.565 0-2.475-.945-4.665-2.847-6.571z"/></symbol><symbol viewBox="0 0 30 13" id="arrow" xmlns="http://www.w3.org/2000/svg"><path d="M29.256 5.657c.496.482.496 1.204 0 1.565l-5.206 5.056c-.496.481-1.24.481-1.612 0-.496-.482-.496-1.204 0-1.565l4.463-4.333-4.463-4.334c-.496-.481-.496-1.203 0-1.565.496-.481 1.24-.481 1.612 0l5.206 5.176z"/><path d="M12.397 6.5c0-.602.495-1.204 1.24-1.204h13.14c.62 0 1.24.482 1.24 1.204 0 .602-.496 1.204-1.24 1.204h-13.14c-.745 0-1.24-.602-1.24-1.204zM8.182 7.704H1.364c-.62 0-1.24-.482-1.24-1.204 0-.602.496-1.204 1.24-1.204h6.694c.62 0 1.24.482 1.24 1.204.123.722-.496 1.204-1.116 1.204z"/></symbol><symbol viewBox="0 0 226 55" id="logo" xmlns="http://www.w3.org/2000/svg"><g clip-path="url(#ca)"><path d="M56.321 19.162a69.254 69.254 0 0 0-3.908-1.954c-.103-.103 0 0 .411-.309.926-.411 1.852-.926 2.777-1.234.412-.103.412-.617 0-.823-.205-.103-.514 0-.617 0-1.234 0-2.469-.309-3.703-.309-1.234-1.646-2.572-3.189-4.012-4.114-1.2-.695-3.29-1.622-5.582-1.52-1.442.062-2.965.533-4.396 1.725-.617.515-1.029 1.029-1.543 1.543-1.44 1.955-2.88 4.012-4.63 5.76-2.982 2.984-8.228 4.63-12.034 2.675-8.127-4.114-9.259-12.96-11.213-8.949-1.44 2.983-1.234 8.95-.103 12.036 4.835 12.24 14.916 22.116 31.58 17.693 4.835-1.235 8.641-6.687 10.287-9.67.926-1.749 1.44-3.703 1.749-5.658.617-2.983.206-3.291.514-7.097 2.778.822 2.263.617 3.703.925h.103c.72.412 1.235-.411.617-.72z"/><path d="M36.056 41.279c.412 1.44.103 3.086.103 4.629 0 1.337.412 2.983.103 4.32-.103.309-.411.309-.617.103-.823-1.131-.514-3.086-.514-4.423 0-1.44-.206-3.189.308-4.63a.322.322 0 0 1 .617 0zm-6.377 2.777c.103 1.029.308 2.058.411 3.086 0 .412-.617.617-.823.206-.411-.823-.411-1.852-.411-2.88 0-1.235-.103-2.469 0-3.704 0-.308.514-.41.617-.102.206 1.131.103 2.366.206 3.394zM33.39 5.602c-.156 0-.32-.015-.492-.046a1.952 1.952 0 0 0-.515-.07c-.875 0-1.57.241-2.086.726-.5.484-.907 1.086-1.219 1.804a12.735 12.735 0 0 0-.75 2.368 25.216 25.216 0 0 1-.633 2.343c-.219.72-.5 1.32-.844 1.805-.343.485-.828.727-1.453.727-.422 0-.773-.07-1.054-.211a1.965 1.965 0 0 1-.68-.54 2.044 2.044 0 0 1-.328-.726 3.372 3.372 0 0 1-.094-.773c0-.61.117-1.25.352-1.922A9.555 9.555 0 0 1 24.6 9.095c.422-.657.915-1.274 1.477-1.852a10.961 10.961 0 0 1 1.875-1.547 9.61 9.61 0 0 1 2.11-1.078 6.702 6.702 0 0 1 2.835-.375c.203.016.39.047.563.094a.934.934 0 0 1 .445.234c.11.094.164.227.164.399 0 .14-.054.28-.164.421-.11.141-.281.211-.515.211zm-7.171 0c-.782 0-1.43.141-1.946.422a3.448 3.448 0 0 0-1.265 1.102 6.023 6.023 0 0 0-.797 1.547 21.311 21.311 0 0 0-.492 1.781c-.125.594-.258 1.18-.399 1.758a8.426 8.426 0 0 1-.492 1.57c-.188.453-.438.82-.75 1.102-.313.265-.727.398-1.242.398-.39 0-.719-.07-.985-.21a1.85 1.85 0 0 1-.609-.54 2.61 2.61 0 0 1-.305-.75 3.372 3.372 0 0 1-.093-.773c0-.61.117-1.25.351-1.922a9.55 9.55 0 0 1 1.008-1.992c.422-.657.922-1.274 1.5-1.852a10.961 10.961 0 0 1 1.875-1.547 9.61 9.61 0 0 1 2.11-1.078c.75-.266 1.5-.398 2.25-.398.359 0 .624.046.796.14.172.078.258.29.258.633 0 .14-.07.281-.21.422-.142.125-.329.187-.563.187zM43.61 44.65c.156 0 .32.015.491.046.172.047.344.07.516.07.875 0 1.57-.242 2.086-.726.5-.484.906-1.086 1.219-1.805a12.8 12.8 0 0 0 .75-2.367c.187-.844.398-1.625.633-2.344.218-.718.5-1.32.843-1.804.344-.485.828-.727 1.453-.727.422 0 .774.07 1.055.211.281.14.508.32.68.539.156.219.265.461.328.727.062.265.094.523.094.773 0 .61-.117 1.25-.352 1.922a9.55 9.55 0 0 1-1.008 1.992 11.815 11.815 0 0 1-1.476 1.852 10.97 10.97 0 0 1-1.875 1.547 9.61 9.61 0 0 1-2.11 1.078 6.702 6.702 0 0 1-2.836.375 3.022 3.022 0 0 1-.562-.094.935.935 0 0 1-.445-.234.496.496 0 0 1-.164-.399c0-.14.054-.281.164-.422.109-.14.28-.21.515-.21zm7.171 0c.781 0 1.43-.141 1.945-.423a3.448 3.448 0 0 0 1.266-1.101c.328-.453.594-.969.797-1.547.187-.578.352-1.172.492-1.781.125-.594.258-1.18.399-1.758a8.42 8.42 0 0 1 .492-1.57c.187-.453.437-.82.75-1.102.312-.266.726-.398 1.242-.398.39 0 .719.07.984.21.25.141.453.32.61.54.14.234.242.484.304.75.063.265.094.523.094.773 0 .61-.117 1.25-.351 1.922a9.554 9.554 0 0 1-1.008 1.992 11.13 11.13 0 0 1-1.5 1.852 10.97 10.97 0 0 1-1.875 1.547 9.61 9.61 0 0 1-2.11 1.078c-.75.265-1.5.398-2.25.398-.359 0-.625-.047-.796-.14-.172-.079-.258-.29-.258-.633 0-.141.07-.282.21-.422.141-.125.329-.188.563-.188zM77.94 9.72c-3.96 0-6.66 2.4-6.66 6.72V24h3.9v-3.1h5.46V24h3.96v-7.56c0-4.32-2.7-6.72-6.66-6.72zm-2.76 8.12V16.1c0-2.12 1.12-3.1 2.74-3.1 1.6 0 2.72.98 2.72 3.1v1.74h-5.46zM93.679 10h-6.4v14h3.96v-3.66h2.44c3.82 0 6.22-1.98 6.22-5.16 0-3.2-2.4-5.18-6.22-5.18zm-.24 7.22h-2.2v-4.1h2.2c1.64 0 2.46.76 2.46 2.06 0 1.28-.82 2.04-2.46 2.04zm14.794-7.5c-3.96 0-6.66 2.4-6.66 6.72V24h3.9v-3.1h5.46V24h3.96v-7.56c0-4.32-2.7-6.72-6.66-6.72zm-2.76 8.12V16.1c0-2.12 1.12-3.1 2.74-3.1 1.6 0 2.72.98 2.72 3.1v1.74h-5.46zm19.079 6.44c2.58 0 4.66-.94 6.02-2.64l-2.52-2.28c-.88 1.06-1.96 1.64-3.3 1.64-2.3 0-3.9-1.6-3.9-4s1.6-4 3.9-4c1.34 0 2.42.58 3.3 1.64l2.52-2.28c-1.36-1.7-3.44-2.64-6.02-2.64-4.44 0-7.7 3.02-7.7 7.28s3.26 7.28 7.7 7.28zm15.626-11.22V10h-8.5v3.06h2.28v7.88h-2.28V24h8.5v-3.06h-2.26v-7.88h2.26zm14.22-1.54c-1.96-1.2-4.4-1.8-6.88-1.8-2.48 0-4.9.6-6.88 1.8l1.32 2.88c1.12-.64 2.3-1.08 3.58-1.3V24h3.96V13.1c1.28.22 2.44.66 3.58 1.3l1.32-2.88zm7.468-1.8c-3.96 0-6.66 2.4-6.66 6.72V24h3.9v-3.1h5.46V24h3.96v-7.56c0-4.32-2.7-6.72-6.66-6.72zm-2.76 8.12V16.1c0-2.12 1.12-3.1 2.74-3.1 1.6 0 2.72.98 2.72 3.1v1.74h-5.46zm23.983-6.32c-1.96-1.2-4.4-1.8-6.88-1.8-2.48 0-4.9.6-6.88 1.8l1.32 2.88c1.12-.64 2.3-1.08 3.58-1.3V24h3.96V13.1c1.28.22 2.44.66 3.58 1.3l1.32-2.88zm8.964 1.54V10h-8.5v3.06h2.28v7.88h-2.28V24h8.5v-3.06h-2.26v-7.88h2.26zm9.102 11.22c4.48 0 7.78-3.08 7.78-7.28s-3.3-7.28-7.78-7.28-7.78 3.08-7.78 7.28 3.3 7.28 7.78 7.28zm0-3.28c-2.12 0-3.78-1.58-3.78-4s1.66-4 3.78-4 3.78 1.58 3.78 4-1.66 4-3.78 4zm17.814-11.28c-1.8 0-3.18.64-4.12 1.88V10h-3.84v14h3.96v-7.84c0-2.18 1.18-3.16 2.76-3.16 1.54 0 2.54.94 2.54 2.96V24h3.96v-8.16c0-3.94-1.96-6.12-5.26-6.12zM78.78 47.28c-.68.54-1.58.8-2.5.8-1.94 0-3.6-1.26-3.6-3.96 0-2.54 1.6-4.12 4-4.12 1.34 0 2.44.5 3.4 1.56l2.52-2.28c-1.38-1.66-3.5-2.56-6.12-2.56-4.54 0-7.8 3.02-7.8 7.42 0 4.62 3.24 7.14 7.1 7.14 1.48 0 2.76-.34 3.76-1.14V51h2.74v-7.3h-3.5v3.58zm16.85-.26c-1.2.72-2.96 1.16-4.46 1.16-2.22 0-3.12-.58-3.12-1.44 0-.84.7-1.3 2.06-1.3h4.22v-3.02h-3.96c-1.22 0-1.74-.44-1.74-1.2 0-.84.86-1.4 2.82-1.4 1.26 0 2.52.24 3.84.82l1.08-2.96c-1.34-.58-3.2-.96-5.08-.96-4.58 0-6.66 2-6.66 4.24 0 1.18.58 2.24 1.68 2.82-1.42.6-2.26 1.78-2.26 3.24 0 2.48 2.36 4.26 6.96 4.26 2.22 0 4.4-.52 5.82-1.34l-1.2-2.92zm10.734-10.3c-1.8 0-3.18.64-4.12 1.88V37h-3.84v14h3.96v-7.84c0-2.18 1.18-3.16 2.76-3.16 1.54 0 2.54.94 2.54 2.96V51h3.96v-8.16c0-3.94-1.96-6.12-5.26-6.12zm18.778 10.3c-1.2.72-2.96 1.16-4.46 1.16-2.22 0-3.12-.58-3.12-1.44 0-.84.7-1.3 2.06-1.3h4.22v-3.02h-3.96c-1.22 0-1.74-.44-1.74-1.2 0-.84.86-1.4 2.82-1.4 1.26 0 2.52.24 3.84.82l1.08-2.96c-1.34-.58-3.2-.96-5.08-.96-4.58 0-6.66 2-6.66 4.24 0 1.18.58 2.24 1.68 2.82-1.42.6-2.26 1.78-2.26 3.24 0 2.48 2.36 4.26 6.96 4.26 2.22 0 4.4-.52 5.82-1.34l-1.2-2.92zM136.576 51h4.24l-3.02-4.4c1.74-.84 2.74-2.36 2.74-4.42 0-3.2-2.4-5.18-6.22-5.18h-6.4v14h3.96v-3.72h2.16l2.54 3.72zm-.04-8.82c0 1.28-.82 2.04-2.46 2.04h-2.2v-4.1h2.2c1.64 0 2.46.76 2.46 2.06zm12.724-5.46c-3.96 0-6.66 2.4-6.66 6.72V51h3.9v-3.1h5.46V51h3.96v-7.56c0-4.32-2.7-6.72-6.66-6.72zm-2.76 8.12V43.1c0-2.12 1.12-3.1 2.74-3.1 1.6 0 2.72.98 2.72 3.1v1.74h-5.46zm23.984-6.32c-1.96-1.2-4.4-1.8-6.88-1.8-2.48 0-4.9.6-6.88 1.8l1.32 2.88c1.12-.64 2.3-1.08 3.58-1.3V51h3.96V40.1c1.28.22 2.44.66 3.58 1.3l1.32-2.88zm7.988 12.76c4.48 0 7.78-3.08 7.78-7.28s-3.3-7.28-7.78-7.28-7.78 3.08-7.78 7.28 3.3 7.28 7.78 7.28zm0-3.28c-2.12 0-3.78-1.58-3.78-4s1.66-4 3.78-4 3.78 1.58 3.78 4-1.66 4-3.78 4zm18.514 3h4.24l-3.02-4.4c1.74-.84 2.74-2.36 2.74-4.42 0-3.2-2.4-5.18-6.22-5.18h-6.4v14h3.96v-3.72h2.16l2.54 3.72zm-.04-8.82c0 1.28-.82 2.04-2.46 2.04h-2.2v-4.1h2.2c1.64 0 2.46.76 2.46 2.06z"/></g><defs><clipPath id="ca"><path transform="translate(.958 .374)" d="M0 0h225.042v54.36H0z"/></clipPath></defs></symbol><symbol viewBox="0 0 14 14" id="plus" xmlns="http://www.w3.org/2000/svg"><path d="M6 1a1 1 0 0 1 2 0v12a1 1 0 1 1-2 0V1z"/><path d="M13 6a1 1 0 1 1 0 2H1a1 1 0 0 1 0-2h12z"/></symbol><symbol viewBox="0 0 65 52" id="quotes" xmlns="http://www.w3.org/2000/svg"><path d="M27.2 29.3c1.4 2.2 2.1 4.8 2.1 7.8 0 4.3-1.3 7.8-4 10.4-2.7 2.7-6.1 4-10.4 4-4.2 0-7.7-1.4-10.4-4.1C1.7 44.7.4 41.3.4 37c0-2 .2-4 .8-6 .5-2 1.6-5 3.3-9L13.2.4H28l-6.6 23.8c2.4 1.2 4.4 2.9 5.8 5.1zm35.4 0c1.4 2.2 2.1 4.8 2.1 7.8 0 4.3-1.4 7.8-4.1 10.4-2.7 2.7-6.1 4-10.4 4-4.2 0-7.7-1.4-10.4-4.1-2.8-2.7-4.1-6.1-4.1-10.4 0-2 .2-4 .8-6 .5-2 1.6-5 3.3-9L48.5.4h14.9l-6.6 23.8c2.4 1.2 4.4 2.9 5.8 5.1z"/></symbol><symbol viewBox="0 0 15 15" id="search" xmlns="http://www.w3.org/2000/svg"><circle cx="5.5" cy="5.5" r="4.5"/><rect x="8" y="9.398" width="2" height="7" rx="1" transform="rotate(-44.34 8 9.398)"/></symbol></svg>