<svg width="328" height="409" viewBox="0 0 328 409" fill="none" xmlns="http://www.w3.org/2000/svg">
<path d="M197.882 38.6578C197.882 39.1733 198.14 39.6887 198.397 40.2041C198.655 40.7196 199.428 43.5545 199.943 47.1625C200.201 49.2243 200.201 51.2861 199.686 53.3478C198.397 59.7908 194.017 67.2646 195.048 69.5841C196.851 73.1922 199.428 79.6351 200.459 81.1815C200.716 81.4392 203.035 86.0781 204.066 89.6862C205.097 93.0365 206.127 98.4486 206.127 98.7063C207.415 101.284 209.219 111.077 210.507 113.654C219.01 129.375 183.453 139.168 175.208 139.426C169.282 139.684 138.878 138.911 124.965 126.798C118.523 121.128 127.283 103.345 131.406 82.47C131.921 79.3774 134.756 73.7076 135.013 70.615C135.529 65.2029 133.21 61.0794 131.921 56.1827C131.406 53.8632 132.179 51.5438 131.921 48.9666C131.664 45.6162 130.633 42.2659 131.148 38.4001C131.406 35.5652 132.437 33.2457 133.21 30.6685C133.983 27.8336 134.756 24.2256 136.044 21.6484C137.848 18.298 139.651 16.494 142.228 13.9168C143.516 12.8859 145.32 10.3087 146.866 9.27786C149.7 7.21611 153.822 6.95839 157.687 6.44295C159.749 6.18523 161.81 5.15436 164.386 5.15436C167.736 5.15436 172.631 6.18523 175.466 7.21611C178.042 7.98927 180.104 10.5665 182.423 11.8551C185.514 13.9168 187.06 15.9786 189.379 19.0712C191.698 21.9061 194.275 24.4833 195.821 28.0913C197.367 31.4417 197.109 35.0498 197.882 38.6578Z" fill="#2C244A"/>
<path d="M146.093 113.654L146.093 89.6862L183.195 89.6862L183.968 125.767L146.093 125.767L146.093 113.654Z" fill="#D38B67"/>
<path d="M145.32 106.438C144.289 104.892 142.228 104.118 140.682 104.892C129.602 108.757 93.7878 123.963 93.7878 125.767C93.7878 125.767 91.7265 148.446 95.3337 169.579C97.6527 182.723 113.628 183.754 116.719 184.269C116.719 184.269 184.226 186.846 219.525 183.238C233.954 181.692 240.138 168.033 239.88 161.074L239.88 125.509L187.06 103.861C185.514 103.345 183.968 103.861 183.453 105.407L180.361 112.881C179.588 114.427 178.558 115.974 177.012 117.262L174.95 118.551C170.055 122.159 160.779 122.674 155.884 119.066L153.049 117.262C148.927 114.685 148.154 110.819 145.32 106.438Z" fill="#E7DEF2"/>
<path d="M146.35 75.254L136.302 74.7385C133.983 74.7385 131.921 72.419 132.179 70.0996C132.179 67.7801 134.498 65.7183 136.817 65.9761L146.866 66.4915C149.185 66.4915 151.246 68.811 150.988 71.1305C150.73 73.4499 148.669 75.254 146.35 75.254Z" fill="#F57B55"/>
<path d="M193.244 73.4498L183.195 74.4807C180.877 74.7384 178.558 72.9344 178.3 70.6149C178.042 68.2955 179.846 65.976 182.165 65.7183L192.214 64.6874C194.532 64.4297 196.851 66.2337 197.109 68.5532C197.367 70.8726 195.563 73.1921 193.244 73.4498Z" fill="#F57B55"/>
<path d="M143.774 88.3976C142.743 86.8513 141.455 84.7896 140.682 82.7278C139.909 80.1506 139.136 76.0271 138.62 71.3882C138.363 67.2647 139.909 45.1008 148.927 39.431C157.172 34.5344 164.386 41.7505 164.386 41.7505C165.932 42.7814 167.736 43.8122 169.282 44.3277L176.239 46.6472C179.331 47.678 182.165 49.7398 184.484 52.0593L185.514 53.0901C187.06 54.6364 188.091 56.6982 188.606 58.7599C189.637 61.5948 190.668 65.7184 190.668 69.5841C190.668 77.058 188.864 80.1506 187.576 85.5627C187.318 87.109 184.484 93.0366 184.484 93.0366C182.938 95.8715 181.392 98.4487 178.815 100.253L177.269 101.284C175.981 102.314 174.95 102.83 173.404 103.603L170.055 104.634C166.448 105.665 163.098 104.892 159.233 103.603C157.43 102.83 154.853 101.541 153.049 99.995C151.503 98.9641 149.957 97.6755 149.442 96.9023C147.381 93.8097 145.062 90.2017 143.774 88.3976Z" fill="#DC9B73"/>
<path d="M15.4595 128.086C15.4595 121.901 20.6127 116.747 27.0542 117.262L89.6653 120.355L150.731 123.447L157.43 125.509C162.841 127.055 168.251 127.055 173.662 125.509L180.361 123.447L241.684 120.355L304.811 117.262C310.737 117.004 315.632 121.643 315.632 127.571L315.632 270.605C315.632 278.079 309.964 284.264 302.492 284.779L181.134 295.604L179.588 296.377C171.343 300.243 161.81 300.243 153.565 296.635L151.504 295.604L25.5082 285.81C19.8397 285.295 15.4595 280.656 15.4595 274.986L15.4595 128.086Z" fill="#F1F0F2"/>
<path d="M128.056 297.15L175.981 324.468L219.783 292.769L128.056 297.15Z" fill="#121251"/>
<path opacity="0.09" d="M167.655 338.546C232.495 338.546 285.058 328.1 285.058 315.214C285.058 302.328 232.495 291.881 167.655 291.881C102.814 291.881 50.2507 302.328 50.2507 315.214C50.2507 328.1 102.814 338.546 167.655 338.546Z" fill="#171570"/>
<path d="M181.392 322.922L165.417 321.118L164.129 342.251L169.54 344.313C173.662 344.055 178.042 348.952 180.877 352.044L184.484 355.91L196.851 340.704L193.76 330.138L181.392 322.922Z" fill="#DC9B73"/>
<path d="M166.448 346.117C153.565 342.509 110.02 322.406 110.02 322.406C89.923 314.417 80.6472 306.943 64.4147 292.253L48.9552 278.079C41.4831 271.378 40.4524 259.781 46.3786 251.791L55.6543 239.421L129.602 287.872C134.756 291.222 161.552 308.747 172.889 316.479C183.196 323.437 174.177 348.178 166.448 346.117Z" fill="#171570"/>
<path d="M189.379 342.251L181.907 344.57C179.331 345.601 175.723 348.952 176.496 351.786C176.754 353.333 177.527 354.621 178.558 355.652L182.165 359.26C183.711 360.807 184.999 362.868 185.514 365.188L186.803 368.28C186.803 368.28 190.668 376.785 192.987 381.166C194.79 384.517 198.883 392.614 201.46 393.903C206.613 396.222 215.145 397.145 218.752 384.774C222.617 372.404 212.569 353.59 212.569 353.59L210.139 348.153L202.005 329.623C200.716 327.045 198.14 325.499 195.563 324.21C193.76 323.18 191.956 322.149 189.637 322.149C187.833 321.376 186.03 321.118 184.226 321.376C184.226 321.376 178.3 323.695 179.073 323.953C179.846 324.468 182.68 325.241 183.453 325.757C186.803 327.819 190.668 330.653 192.471 333.231C195.048 336.839 193.502 341.478 189.379 342.251Z" fill="#F2F2F7"/>
<path d="M217.464 386.063C214.63 387.867 211.796 388.64 209.992 390.187C207.673 392.506 207.415 394.826 204.066 395.083C209.477 396.114 217.722 396.63 221.329 384.517C222.617 380.136 222.36 371.889 219.783 364.672C217.98 359.776 212.053 351.786 210.25 347.148C208.704 343.282 207.673 337.096 204.581 330.911C199.428 320.602 195.306 321.118 190.668 321.118C187.06 321.118 183.711 321.376 183.711 321.376L182.938 321.376C189.122 326.53 193.76 323.437 197.109 326.788C202.52 332.2 204.581 343.539 206.9 348.952C208.446 352.817 216.434 363.642 217.464 367.25C220.041 376.527 219.525 384.517 217.464 386.063Z" fill="#1E1E1E"/>
<path d="M189.122 342.508L181.65 344.828C179.073 345.859 175.466 349.209 176.239 352.044C176.496 353.59 177.269 354.879 178.3 355.91L181.907 359.518C186.803 363.899 187.318 379.105 195.563 368.28C202.262 359.26 191.183 341.993 189.122 342.508Z" fill="#1E1E1E"/>
<path d="M158.46 329.623L174.435 327.818L175.723 348.951L170.313 351.013C166.19 350.756 161.81 355.652 158.976 358.745L155.368 362.611L143.001 347.405L146.093 336.839L158.46 329.623Z" fill="#DC9B73"/>
<path d="M173.404 352.56C186.287 348.952 229.832 328.849 229.832 328.849C249.929 320.86 259.205 313.386 275.437 298.696L290.897 284.522C298.369 277.821 299.4 266.224 293.474 258.234L284.198 245.864L210.25 294.315C205.097 297.665 178.3 315.19 166.963 322.922C156.657 329.88 165.675 354.621 173.404 352.56Z" fill="#171570"/>
<path d="M150.473 348.694L157.945 351.013C160.522 352.044 164.129 355.394 163.356 358.229C163.098 359.776 162.325 361.064 161.295 362.095L157.687 365.703C156.141 367.25 154.853 369.311 154.338 371.631L153.049 374.723C153.049 374.723 149.185 383.228 146.866 387.609C145.062 390.96 140.994 399.019 138.418 400.308C133.265 402.627 124.707 403.588 121.1 391.217C117.235 378.847 127.284 360.033 127.284 360.033L129.738 355.016L137.848 336.066C139.136 333.488 141.712 331.942 144.289 330.653C146.093 329.623 147.896 328.592 150.215 328.592C152.019 327.819 154.63 327.766 156.691 328.023C156.691 328.023 162.489 328.88 161.716 329.396C160.943 329.911 157.43 331.942 156.657 332.457C153.307 334.519 149.442 337.354 147.639 339.931C144.804 343.282 146.35 347.921 150.473 348.694Z" fill="#F2F2F7"/>
<path d="M122.388 392.506C125.222 394.31 128.056 395.083 129.86 396.63C132.179 398.949 132.437 401.269 135.786 401.526C130.375 402.557 122.13 403.073 118.523 390.96C117.235 386.578 117.492 378.331 120.069 371.115C121.873 366.219 127.799 358.229 129.602 353.59C131.148 349.725 132.179 343.539 135.271 337.354C140.424 327.045 144.547 327.561 149.185 327.561C151.704 327.561 154.407 327.566 156.691 328.023C158.975 328.481 146.093 329.88 142.743 333.231C137.332 338.643 135.271 349.982 132.952 355.394C131.406 359.26 123.419 370.084 122.388 373.693C119.811 382.97 120.069 391.217 122.388 392.506Z" fill="#1E1E1E"/>
<path d="M150.473 348.951L157.945 351.271C160.522 352.302 164.129 355.652 163.356 358.487C163.098 360.033 162.325 361.322 161.295 362.353L157.687 365.961C152.792 370.342 152.276 385.548 144.031 374.723C137.59 365.703 148.669 348.694 150.473 348.951Z" fill="#1E1E1E"/>
<path d="M10.564 132.468C10.564 126.025 15.9748 120.87 22.4163 121.128L86.8311 124.478L149.7 127.571L156.657 129.633C162.068 131.179 167.994 131.179 173.405 129.633L180.361 127.571L243.488 124.478L308.418 121.128C314.344 120.87 319.497 125.509 319.497 131.694L319.497 278.852C319.497 286.584 313.571 292.769 306.099 293.542L181.134 304.624L179.331 305.397C170.828 309.263 161.037 309.521 152.792 305.655L150.731 304.624L21.128 294.573C15.2018 294.057 10.8216 289.161 10.8216 283.233L10.8216 132.468L10.564 132.468Z" fill="#3E328A"/>
<path d="M150.215 127.829L157.172 129.89C162.583 131.437 168.509 131.437 173.92 129.89L180.877 127.829L181.65 304.882L179.846 305.655C171.343 309.52 161.552 309.778 153.307 305.912L151.246 304.882L150.215 127.829Z" fill="#6C5DDA"/>
<path d="M319.497 190.97L311.252 203.083C310.737 203.856 310.221 204.887 310.221 205.917L310.221 206.175C310.221 208.237 310.737 210.299 311.767 212.103L314.344 216.484C315.117 217.515 315.89 218.288 317.178 218.803C318.209 219.319 319.497 218.803 320.27 217.772C321.043 216.742 321.816 215.195 322.074 214.938C322.331 214.164 324.393 210.556 324.908 208.237C325.423 206.433 325.423 198.444 323.877 193.547C323.104 190.197 319.497 190.97 319.497 190.97Z" fill="#DC9B73"/>
<path d="M10.3063 177.826L18.5514 189.939C19.0667 190.712 19.582 191.743 19.582 192.774L19.582 193.031C19.582 195.093 19.0667 197.155 18.0361 198.959L15.4595 203.34C14.6865 204.371 13.9135 205.144 12.6252 205.66C11.5946 206.175 10.3063 205.66 9.53331 204.629C8.76033 203.598 7.98736 202.052 7.7297 201.794C7.21438 201.021 5.15311 197.155 4.63779 194.836C4.12247 193.031 4.12247 185.042 5.66843 180.146C6.69906 177.053 10.3063 177.826 10.3063 177.826Z" fill="#DC9B73"/>
<path d="M225.194 280.398L278.787 276.017C282.394 275.759 285.229 272.667 285.229 268.801L285.229 246.637C285.229 242.514 281.621 239.163 277.499 239.421L223.906 243.544C220.298 243.802 217.207 246.895 217.207 250.761L217.207 273.182C217.464 277.306 220.814 280.656 225.194 280.398Z" fill="#6C5DDA"/>
<path d="M78.8436 186.846C79.8743 188.65 80.3896 190.712 80.3896 193.032C80.3896 196.64 79.3589 199.474 77.04 201.536C74.7211 203.598 71.8868 204.887 68.5373 204.887C65.1877 204.887 62.0958 203.856 60.0345 201.536C57.7156 199.474 56.6849 196.64 56.6849 193.031C56.6849 191.485 56.9426 189.939 57.2003 188.135C57.7156 186.589 58.4885 184.269 60.0345 180.919L66.7336 165.456L79.1013 165.456L74.2058 182.465C76.0094 183.754 77.5553 185.042 78.8436 186.846ZM106.155 186.846C107.186 188.65 107.701 190.712 107.701 193.032C107.701 196.64 106.671 199.474 104.352 201.536C102.033 203.598 99.1987 204.887 95.8491 204.887C92.4995 204.887 89.4076 203.856 87.3464 201.536C85.0274 199.474 83.9968 196.64 83.9968 193.032C83.9968 191.485 84.2545 189.939 84.5121 188.135C85.0274 186.589 85.8004 184.269 87.3464 180.919L94.0455 165.456L106.413 165.456L101.518 182.465C103.579 183.754 105.125 185.042 106.155 186.846Z" fill="#6C5DDA"/>
</svg>
