<svg width="1117" height="1312" viewBox="0 0 1117 1312" fill="none" xmlns="http://www.w3.org/2000/svg">
<path d="M1089.65 1303.96L125.619 1051.62C37.6806 1028.42 -15.5851 937.594 7.61934 849.655L259.543 -114.382C282.748 -202.321 373.572 -255.587 461.511 -232.382L1425.55 19.9554C1513.48 43.1599 1566.75 133.984 1543.55 221.923L1291.21 1185.96C1268.42 1273.9 1177.59 1326.75 1089.65 1303.96Z" fill="#7563EB"/>
<path d="M334.412 151.334C327.752 149.95 321.019 151.771 314.359 151.115C318.75 155.776 319.555 162.912 324.459 167.355C328.045 170.559 333.094 171.797 337.558 169.685C341.291 167.937 343.999 164.587 348.097 163.495C348.17 163.495 348.17 163.495 348.243 163.495C348.097 162.33 347.292 161.092 346.78 160.145C346.048 158.762 345.169 157.451 344.072 156.286C341.51 153.373 337.998 152.062 334.412 151.334Z" fill="#2C2172"/>
<path d="M397.834 107.332C397.535 110.721 398.133 114.308 399.628 117.298C401.223 120.487 406.405 125.171 410.192 122.68C410.79 122.281 411.288 122.68 411.487 123.178C413.481 125.869 417.567 122.58 418.663 120.786C419.859 119.092 420.058 116.8 420.158 114.807C420.357 110.521 418.563 106.635 416.271 103.147C414.178 99.8579 411.487 96.9678 409.096 93.8784C407.302 91.5863 405.508 89.1945 404.312 86.6034C403.017 93.7788 398.532 100.057 397.834 107.332Z" fill="#2C2172"/>
<path d="M325.72 291.243C325.72 291.243 352.229 313.741 351.731 315.734C351.233 317.727 347.346 317.952 347.346 317.952C347.346 317.952 349.937 350.266 347.346 354.925C344.755 359.584 306.885 359.584 303.995 354.925C301.105 350.266 303.995 317.952 303.995 317.952C303.995 317.952 297.916 316.955 299.909 314.563C301.902 312.171 325.72 291.243 325.72 291.243ZM325.621 329.911C335.487 329.911 335.487 314.563 325.621 314.563C315.755 314.563 315.755 329.911 325.621 329.911Z" fill="#2C2172"/>
<path d="M314.559 213.012C314.957 209.922 318.246 208.527 320.937 208.228C322.631 208.029 324.226 208.527 325.521 209.424C325.521 208.826 325.621 208.128 325.621 207.53C325.621 207.331 325.82 207.231 326.019 207.231C326.019 207.132 326.019 207.032 326.019 206.833C326.019 206.534 326.518 206.534 326.518 206.833C326.617 207.63 326.617 208.527 326.617 209.424C327.215 208.826 328.112 208.328 329.308 208.228C332.896 207.929 336.185 210.819 337.879 213.709C338.776 215.204 341.068 220.885 337.779 221.283C333.693 221.781 330.504 216.4 328.312 213.012C327.813 212.513 327.315 212.015 326.717 211.517C326.617 211.517 326.617 211.616 326.518 211.616C326.418 213.61 326.219 215.702 325.92 217.695C326.219 223.376 325.82 229.256 325.82 234.936C325.82 241.514 325.82 248.091 325.82 254.669C325.82 261.047 325.82 267.425 325.82 273.803C325.82 276.992 325.82 280.281 325.82 283.47C325.82 286.26 326.318 289.748 325.621 292.539C325.621 292.539 325.621 292.539 325.621 292.638C325.521 292.738 325.421 292.838 325.322 292.838C325.222 292.838 325.122 292.838 325.023 292.638C325.023 292.638 325.023 292.638 325.023 292.539C324.325 290.047 324.824 287.058 324.824 284.466C324.824 281.277 324.824 277.989 324.824 274.8C324.824 268.421 324.824 262.043 324.824 255.665C324.824 249.088 324.824 242.51 324.824 235.933C324.824 229.156 324.425 222.18 324.923 215.503C324.923 215.304 325.023 215.204 325.122 215.104C325.122 214.606 325.222 214.108 325.222 213.61C325.222 213.41 325.222 213.211 325.222 213.012C324.724 213.41 324.325 213.809 323.827 214.207C322.531 215.403 321.037 216.3 319.243 216.599C317.05 216.799 314.16 215.603 314.559 213.012ZM328.112 211.716C331.102 213.709 332.298 217.596 335.387 219.589C336.683 220.386 338.377 220.885 338.477 218.891C338.477 217.397 337.779 215.802 336.982 214.506C335.686 212.115 333.294 210.321 330.703 209.723C329.707 209.524 329.009 209.524 328.411 209.822C328.511 210.022 328.511 210.221 328.312 210.321C328.013 210.62 327.813 210.819 327.514 211.118C327.714 211.218 327.913 211.417 328.112 211.716ZM318.445 215.304C320.14 215.403 321.634 214.307 322.83 213.211C323.628 212.513 324.525 211.517 325.421 210.719C324.724 210.321 323.927 209.922 323.129 209.623C320.439 208.826 316.452 210.022 315.655 213.012C315.356 214.706 317.15 215.204 318.445 215.304Z" fill="#3E328A"/>
<path d="M416.244 258.533C416.842 262.173 416.368 265.511 415.599 268.906C421.713 264.281 428.989 260.954 434.056 255.109C437.21 251.459 439.063 246.84 438.551 242.067C438.115 237.686 435.582 234.012 433.558 230.342C433.539 230.244 433.52 230.146 433.501 230.048C425.254 232.547 415.162 236.009 414.461 246.089C414.235 250.191 415.571 254.501 416.244 258.533Z" fill="#2C2172"/>
<path d="M273.399 108.922C286.058 111.511 298.032 115.594 310.691 118.383C325.403 121.669 340.286 123.462 355.853 124.956C370.907 126.35 386.474 126.55 401.528 125.255C402.554 125.155 403.581 125.056 404.436 124.956C410.081 122.964 415.726 121.072 421.714 119.478C437.452 115.096 454.73 111.611 472.178 111.511C473.889 111.212 475.6 110.913 477.31 110.714C498.181 107.627 521.617 107.527 543 108.025C554.461 108.324 565.752 108.922 577.213 109.818C577.898 109.718 578.582 109.619 579.437 109.619C580.977 109.619 582.345 109.917 583.372 110.316C591.412 111.013 599.452 111.909 607.492 113.005C627.507 115.594 647.693 118.781 666.51 123.462C673.353 125.056 680.196 126.749 687.038 128.541C694.223 130.533 701.408 132.625 708.593 134.915C708.422 134.716 708.079 134.517 707.908 134.318C699.013 125.653 693.539 115.395 690.973 105.436C689.775 100.655 689.091 95.8748 688.749 90.9947C688.407 86.3138 687.209 80.0395 689.775 75.6574C690.288 74.8606 692.17 74.8606 692.512 75.6574C694.907 79.8403 693.197 84.6208 694.736 89.0029C696.447 93.5842 698.158 97.8667 700.895 102.249C707.053 111.611 715.948 120.076 724.673 128.641C732.884 136.808 743.148 144.178 753.754 151.348C754.438 151.846 755.123 152.344 755.978 152.743C792.928 168.578 826.8 187.102 855.368 208.017C905.833 245.065 941.928 289.484 961.429 335.596C961.429 335.596 974.088 359 982.47 385.691C990.168 409.992 993.419 437.081 995.643 450.925C1022.67 619.635 1012.91 1119 1013.43 1128.46C1013.96 1137.91 999.172 1153.87 970.769 1152.38C942.367 1150.88 933.735 1141.4 930.124 1128.46C926.513 1115.51 937.651 896.007 934.743 704.589C932.861 579.4 917.291 430.839 916.295 421.372C915.298 411.904 914.302 391.973 898.819 346.352C897.45 342.567 896.253 338.783 895.055 334.899C885.989 314.781 875.896 294.862 863.237 275.441C850.407 255.722 833.642 236.799 812.772 219.47C806.101 213.992 799.087 208.714 791.389 203.535C782.493 200.348 774.282 196.763 765.387 193.576C752.728 188.994 739.898 184.712 726.555 180.828C700.381 173.159 672.326 167.881 643.929 163.997C583.201 155.83 520.248 166.486 466.875 183.417C463.454 184.513 461.059 181.824 463.967 180.529C490.14 168.976 519.564 161.009 551.896 157.224C583.201 153.539 614.164 154.535 645.469 156.826C675.577 159.017 704.145 165.092 731.345 172.761C737.332 174.454 743.319 176.247 749.135 178.238C746.911 177.043 744.688 175.848 742.464 174.653C737.332 171.964 732.2 169.375 726.897 166.885C713.725 161.308 700.21 155.93 686.354 150.95C666.681 143.879 645.469 138.003 624.428 132.525C606.124 127.745 585.254 125.554 565.41 123.761C544.026 121.869 521.959 121.371 500.404 121.968C490.483 122.267 479.534 122.267 469.783 123.064C460.204 123.86 450.795 125.056 441.386 125.753C437.794 126.55 434.03 127.446 430.609 128.442C413.16 133.322 396.396 139.497 382.197 147.165C368.17 154.734 356.366 162.801 347.471 172.562C342.51 177.94 339.43 183.816 336.522 189.692C333.101 196.265 329.338 203.037 326.943 209.71C326.6 210.805 323.692 210.507 323.692 209.411C321.64 184.911 341.654 158.021 371.078 140.592C376.723 137.306 382.539 134.218 388.869 131.33C378.263 131.629 367.656 131.23 357.221 130.434C341.483 129.239 325.916 126.35 311.204 123.163C297.861 120.275 282.123 116.491 272.03 110.515C270.833 109.818 271.859 108.623 273.399 108.922Z" fill="#4B3BAD"/>
<path d="M853.809 273.28C851.617 267.799 851.517 264.311 851.916 261.121C852.813 253.846 857.696 247.468 862.679 242.186C864.572 240.094 868.16 236.805 867.961 241.389C867.761 244.778 869.455 251.056 870.253 254.245C871.05 257.434 870.95 260.623 870.352 263.812C869.356 269.094 865.27 273.479 861.981 277.465C858.593 281.452 856.898 279.857 853.809 273.28Z" fill="#2C2172"/>
<path d="M817.334 275.971C824.51 279.658 836.269 276.568 843.644 280.156C847.331 281.95 850.321 285.039 851.617 288.926C852.314 291.119 852.812 295.205 851.218 297.297C851.816 298.294 852.314 299.291 853.012 300.187C855.304 303.277 852.215 307.263 848.627 307.861C842.946 308.758 839.359 309.256 834.376 308.06C830.19 307.164 826.403 304.473 823.314 301.483C817.334 295.603 814.843 286.833 812.252 279.16C810.657 274.276 813.348 273.977 817.334 275.971Z" fill="#2C2172"/>
<path d="M853.909 280.355C857.098 288.129 859.49 296.002 863.376 303.376C867.562 311.349 873.94 318.425 880.019 325.002C885.799 331.281 892.078 336.762 899.552 341.047C906.429 344.934 914.7 347.525 920.58 352.907C921.676 353.903 920.48 355.398 919.285 355.199C902.044 351.611 886.497 340.449 874.937 327.593C862.679 313.94 854.208 299.091 851.816 280.654C851.617 279.359 853.41 279.359 853.909 280.355Z" fill="#2C2172"/>
<path d="M542.17 890.861C537.586 897.837 539.878 906.707 543.067 913.882C543.964 915.377 544.961 916.473 546.954 916.473C548.748 916.473 550.442 915.477 551.737 914.281C554.329 911.889 555.823 908.401 556.82 905.013C557.916 901.026 557.518 896.741 556.72 892.655C556.222 889.964 555.425 887.373 554.927 884.782C554.528 882.59 554.229 880.397 553.83 878.304C550.243 882.789 545.359 886.078 542.17 890.861Z" fill="#2C2172"/>
<path d="M1073.75 534.683C1073.26 533.786 1074.55 532.989 1075.25 533.587C1077.04 529.102 1075.55 523.521 1074.05 519.136C1072.36 514.552 1069.57 510.665 1065.48 507.975C1061.8 505.483 1057.31 504.387 1053.03 503.689C1048.64 502.992 1044.16 503.39 1039.87 502.593C1042.26 506.38 1044.36 510.167 1046.05 514.353C1048.04 519.037 1050.04 523.82 1052.83 528.106C1055.42 531.992 1059.01 535.48 1063.59 536.676C1065.58 537.175 1067.78 537.075 1069.67 536.477C1070.47 536.178 1071.26 535.779 1072.06 535.381C1072.36 535.281 1072.66 535.082 1072.86 534.882C1073.85 534.484 1073.56 534.384 1073.75 534.683Z" fill="#2C2172"/>
<path d="M489.568 121.903C487.176 126.686 487.475 131.769 488.671 136.851C489.568 140.439 490.266 143.628 489.867 147.016C495.946 141.436 505.414 142.631 512.589 139.143C517.672 136.652 520.163 131.37 520.661 125.989C520.96 123.098 520.562 118.614 517.472 117.318C516.476 116.92 515.579 116.72 514.781 116.322C514.483 116.521 514.184 116.521 513.885 116.222C510.197 112.634 505.812 111.04 500.73 112.435C495.747 113.531 491.86 117.318 489.568 121.903Z" fill="#2C2172"/>
<path d="M616.124 164.852C613.334 164.852 611.241 162.759 608.65 161.463C604.664 159.57 599.382 159.171 595.296 160.467C589.516 162.261 585.828 167.742 580.546 170.333C586.725 171.927 592.107 175.814 598.585 176.512C602.571 176.91 607.454 176.811 610.444 173.821C612.935 171.529 614.63 167.941 616.124 164.852Z" fill="#2C2172"/>
<path d="M625.193 191.56C624.994 194.65 625.692 197.739 626.987 200.529C630.675 208.801 639.544 214.581 642.633 223.052C643.331 219.564 644.228 216.076 645.324 212.688C647.118 207.406 647.317 201.725 646.321 196.344C645.524 191.66 643.63 187.275 640.84 183.587C638.747 180.897 635.558 177.807 631.97 178.106C630.376 178.804 629.578 182.192 628.582 183.488C627.884 184.484 627.087 185.282 626.389 186.378C625.492 187.773 625.393 189.966 625.193 191.56Z" fill="#2C2172"/>
<path d="M851.211 400.842C849.816 406.921 850.713 412.602 852.308 418.482C853.703 423.365 854.799 428.049 853.703 432.833C856.493 430.341 859.882 428.547 863.071 426.454C868.253 423.166 871.741 418.382 874.332 412.901C876.824 407.619 877.721 401.938 877.82 396.158C877.92 391.076 877.721 385.794 876.126 381.01C876.026 381.01 876.026 381.11 875.927 381.11C870.645 382.505 865.064 383.203 860.38 386.192C855.198 389.481 852.507 395.062 851.211 400.842Z" fill="#2C2172"/>
<path d="M709.105 196.942C708.507 201.925 710.401 207.705 712.593 212.09C714.487 215.976 717.975 218.567 720.168 222.155C722.061 218.866 724.453 216.076 726.845 213.186C730.133 209.2 732.326 204.914 732.425 199.632C732.625 194.749 731.13 189.268 728.838 184.983C727.044 181.794 724.552 179.203 723.755 175.714C722.36 179.003 719.669 181.096 716.879 183.388C712.693 186.876 709.703 191.56 709.105 196.942Z" fill="#2C2172"/>
<path d="M807.368 212.987C803.382 216.774 801.887 222.255 801.987 227.636C802.087 233.217 804.179 238.2 806.372 243.183C807.667 246.173 808.664 249.163 808.664 252.352C810.258 250.458 812.052 248.764 813.746 246.97C817.534 243.083 819.726 238.798 820.324 233.417C821.42 224.447 817.932 215.578 818.63 206.609C815.042 209 810.657 209.897 807.368 212.987Z" fill="#2C2172"/>
<path d="M867.462 298.593C867.662 300.088 869.555 305.071 871.947 304.274C872.047 303.975 872.445 303.775 872.744 303.875C873.541 303.576 874.239 304.772 873.541 305.469C875.036 307.762 878.325 306.366 880.418 305.071C883.707 302.978 885.301 300.287 885.799 296.401C886.696 289.225 884.404 281.85 884.803 274.675C882.212 277.964 878.724 280.455 875.435 282.947C872.246 285.438 869.655 288.229 868.26 292.016C867.363 294.108 867.064 296.401 867.462 298.593Z" fill="#2C2172"/>
<path d="M632.855 129.892C629.367 132.085 625.779 134.078 622.391 136.37C626.776 137.267 630.961 138.463 635.047 140.356C639.731 142.549 644.216 145.339 649.299 146.734C653.285 147.831 666.141 145.339 662.553 139.26C662.354 138.861 662.453 138.363 662.852 138.164C664.447 137.167 665.044 136.071 665.343 134.775L665.343 134.676C665.941 130.291 664.247 125.906 660.46 123.614C655.876 120.923 650.295 121.521 645.512 123.115C640.927 124.511 636.841 127.401 632.855 129.892Z" fill="#2C2172"/>
<path d="M635.048 140.356C630.962 138.462 626.776 137.167 622.391 136.37C625.78 134.077 629.367 131.985 632.855 129.892C636.842 127.4 640.828 124.61 645.313 123.115C650.096 121.521 655.677 120.923 660.261 123.613C664.148 125.905 665.742 130.29 665.144 134.675L665.144 134.775C664.845 136.071 664.248 137.167 662.653 138.163C662.254 138.363 662.155 138.861 662.354 139.26C665.942 145.438 652.986 147.83 649.1 146.734C644.216 145.339 639.732 142.548 635.048 140.356ZM664.248 139.06C665.942 137.665 667.337 135.273 667.038 133.081C667.237 129.692 666.141 126.105 663.65 123.813C659.962 120.325 654.68 119.428 649.797 120.125C644.316 120.823 639.632 123.613 634.948 126.404C629.866 129.493 624.384 132.483 619.7 136.071C619.202 136.469 619.102 137.565 619.9 137.665C623.288 138.263 626.676 138.761 629.866 139.957C633.154 141.153 636.144 142.748 639.233 144.342C643.319 146.335 647.704 148.827 652.388 148.528C657.172 148.229 667.536 145.538 664.248 139.06Z" fill="#2C2172"/>
<path d="M867.462 298.593C867.163 296.4 867.363 294.108 868.16 292.016C869.655 288.229 872.246 285.438 875.335 282.947C878.624 280.356 882.112 277.864 884.703 274.675C884.304 281.85 886.696 289.225 885.7 296.4C885.201 300.287 883.607 302.978 880.318 305.071C878.225 306.366 874.937 307.762 873.442 305.469C874.139 304.772 873.442 303.576 872.644 303.875C872.346 303.775 872.047 303.975 871.847 304.273C869.555 304.971 867.662 300.088 867.462 298.593ZM885.799 302.38C888.49 298.095 887.793 292.016 887.294 287.332C886.696 281.751 885.7 275.871 887.195 270.39C887.394 269.792 887.593 269.194 887.793 268.496C888.092 267.3 886.497 266.902 885.999 267.998C885.7 268.696 885.5 269.393 885.401 270.091C882.311 277.964 872.346 280.854 868.06 288.029C865.967 291.617 864.473 296.401 865.967 300.486C866.864 302.878 869.256 306.964 872.246 306.167C874.438 311.748 883.507 306.067 885.799 302.38Z" fill="#2C2172"/>
<path d="M980.493 128.333C981.663 133.36 980.911 138.057 979.573 142.919C978.402 146.957 977.483 150.831 978.402 154.786C976.061 152.726 973.219 151.243 970.543 149.512C966.196 146.793 963.269 142.837 961.095 138.304C959.005 133.937 958.253 129.239 958.169 124.459C958.085 120.257 958.253 115.889 959.59 111.933C959.674 111.933 959.674 112.016 959.758 112.016C964.189 113.169 968.871 113.746 972.801 116.219C977.065 118.938 979.322 123.553 980.493 128.333Z" fill="#2C2172"/>
<path d="M359.613 497.81C360.709 493.524 360.709 489.04 359.912 484.754C359.513 482.662 358.915 480.569 358.118 478.576C357.619 477.28 357.021 475.984 356.722 474.689C350.942 479.472 345.361 484.655 341.973 491.531C339.98 495.418 339.183 499.803 339.282 504.188C339.382 508.971 341.973 512.26 343.966 516.446C351.54 512.26 357.32 506.48 359.613 497.81Z" fill="#2C2172"/>
</svg>
